<svg xmlns="http://www.w3.org/2000/svg" version="1.1" xmlns:xlink="http://www.w3.org/1999/xlink" xmlns:svgjs="http://svgjs.dev/svgjs" width="100%" height="100%" viewBox="0 0 1000 600"><rect width="1000" height="600" x="0" y="0" fill="#072c50"/><g><rect width="333.3333333333333" height="333.3333333333333" rx="13.333333333333334" ry="13.333333333333334" y="128.9136917840019" fill="#b88746" transform="matrix(1.1716025956031721,0,0,1.1716025956031721,0,-46.30271993294882)" x="106.69146728515625"/><path d="M225.90278114591325 370.58035880680944L225.90278114591325 220.58036334811558L291.884922005422 220.58036334811558L320.81349255817014 263.64583823476835L320.81349255817014 352.78274029802L303.6706359343194 370.58035880680944L225.90278114591325 370.58035880680944ZM283.5515889243835 235.9970295480369L243.04563776976397 235.9970295480369L243.04563776976397 355.1636926068881L296.6170647192975 355.1636926068881L303.46230260729345 348.08035948800534L303.46230260729345 265.78869531274967L283.5515889243835 235.9970295480369Z " fill="#072c50" transform="matrix(1.1716025956031721,0,0,1.1716025956031721,0,-46.30271993294882)"/><path d="M523.3581339291163 370.58035880680944L523.3581339291163 220.58036334811558L589.3402747886252 220.58036334811558L618.2688453413732 263.64583823476835L618.2688453413732 352.78274029802L601.1259887175224 370.58035880680944L523.3581339291163 370.58035880680944ZM581.0069417075865 235.9970295480369L540.5009905529671 235.9970295480369L540.5009905529671 355.1636926068881L594.0724175025006 355.1636926068881L600.9176553904965 348.08035948800534L600.9176553904965 265.78869531274967L581.0069417075865 235.9970295480369ZM746.8402700202537 220.58036334811558L672.9117008298974 220.58036334811558L651.9295586079968 242.00893412792897L651.9295586079968 370.58035880680944L669.0724152318476 370.58035880680944L669.0724152318476 298.37798004038257L718.7747946794702 298.37798004038257L718.7747946794702 282.7232186095745L669.0724152318476 282.7232186095745L669.0724152318476 246.7113149379436L679.3402720638414 235.9970295480369L746.8402700202537 235.9970295480369L746.8402700202537 220.58036334811558Z " fill="#b88746" transform="matrix(1.1716025956031721,0,0,1.1716025956031721,0,-46.30271993294882)"/></g></svg>